Coordinates
version=1
nRows=6
nColumns=63
inDegrees=yes

Units are S.I. units (second, meters, Newtons, ...)
If the header above contains a line with 'inDegrees', this indicates whether rotational values are in degrees (yes) or radians (no).

endheader
time	pelvis_tilt	pelvis_list	pelvis_rotation	pelvis_tx	pelvis_ty	pelvis_tz	hip_flexion_r	hip_adduction_r	hip_rotation_r	knee_angle_r	knee_angle_r_beta	ankle_angle_r	subtalar_angle_r	mtp_angle_r	hip_flexion_l	hip_adduction_l	hip_rotation_l	knee_angle_l	knee_angle_l_beta	ankle_angle_l	subtalar_angle_l	mtp_angle_l	L5_S1_Flex_Ext	L5_S1_Lat_Bending	L5_S1_axial_rotation	L4_L5_Flex_Ext	L4_L5_Lat_Bending	L4_L5_axial_rotation	L3_L4_Flex_Ext	L3_L4_Lat_Bending	L3_L4_axial_rotation	L2_L3_Flex_Ext	L2_L3_Lat_Bending	L2_L3_axial_rotation	L1_L2_Flex_Ext	L1_L2_Lat_Bending	L1_L2_axial_rotation	L1_T12_Flex_Ext	L1_T12_Lat_Bending	L1_T12_axial_rotation	Abs_r3	Abs_r2	Abs_r1	Abs_t1	Abs_t2	neck_flexion	neck_bending	neck_rotation	arm_flex_r	arm_add_r	arm_rot_r	elbow_flex_r	pro_sup_r	wrist_flex_r	wrist_dev_r	arm_flex_l	arm_add_l	arm_rot_l	elbow_flex_l	pro_sup_l	wrist_flex_l	wrist_dev_l
      2.16666667	      1.98816166	     -4.44461115	     90.05488575	      0.18800346	      0.69400659	      0.57586291	      3.50125038	      3.61810564	     -1.04565874	      6.04497499	      0.10550472	     23.09113194	    -12.52567357	      0.00000000	      0.56599552	     -3.46580137	     -3.85779248	      0.79078271	      0.01380176	     29.40501623	      9.03160033	      0.00000000	     -0.04593708	      0.80311633	     -1.18816758	     -0.08530974	      1.06814473	     -1.26242805	     -0.07547002	      1.95269706	     -1.26242805	     -0.05250148	      1.95269706	     -1.03964663	     -0.04265717	      1.63771483	     -0.96538616	     -0.02624845	      1.24402720	     -0.89112568	     -0.32812394	      9.08501260	     -6.60823161	      0.00000000	      0.00000000	     20.61642606	     -5.78184734	      5.09782443	     14.46163477	    -17.08239357	     58.86093499	     44.70630050	     59.12600762	      9.85425439	      5.69900876	      8.78029924	     -9.21396572	     42.40298915	     45.28556939	     83.05779910	     -1.72673124	      1.52278175
      2.18333333	      1.84625062	     -4.50806833	     89.51263673	      0.18877258	      0.69292746	      0.57626494	      3.69417236	      3.47965188	     -0.92424937	      6.15414035	      0.10741001	     23.81458263	    -11.92763229	      0.00000000	      0.60683715	     -3.32019439	     -3.75542930	      0.70733894	      0.01234539	     29.87044356	      8.80913325	      0.00000000	     -0.04745971	      0.79189690	     -1.14546768	     -0.08813742	      1.05322288	     -1.21705941	     -0.07797155	      1.92541813	     -1.21705941	     -0.05424170	      1.92541813	     -1.00228422	     -0.04407108	      1.61483616	     -0.93069249	     -0.02711848	      1.22664830	     -0.85910076	     -0.33899993	      8.95809614	     -6.37074760	      0.00000000	      0.00000000	     20.99913106	     -5.89666942	      5.25821957	     13.41906276	    -16.49951856	     58.24216495	     43.06465843	     63.22500315	      7.52992471	      4.16969197	      7.54565957	     -8.85281255	     41.35994213	     45.08957296	     80.81425003	     -2.56074386	      5.00588235
      2.20000000	      1.65567986	     -4.67028637	     88.87825793	      0.18930073	      0.69173459	      0.57677845	      4.02206800	      3.27665676	     -0.48008679	      6.34481783	      0.11073796	     24.44580725	    -11.50935272	      0.00000000	      0.77050362	     -3.10178608	     -3.80336271	      0.64020110	      0.01117362	     30.40074659	      8.64761128	      0.00000000	     -0.04827950	      0.78367901	     -1.05537126	     -0.08965986	      1.04229309	     -1.12133197	     -0.07931839	      1.90543715	     -1.12133197	     -0.05517864	      1.90543715	     -0.92344985	     -0.04483234	      1.59807824	     -0.85748915	     -0.02758691	      1.21391879	     -0.79152845	     -0.34485563	      8.86513374	     -5.86965835	      0.00000000	      0.00000000	     21.72178082	     -6.24037577	      5.32398415	     11.95937700	    -15.97326651	     55.90079499	     41.91745882	     64.48811864	      5.54834402	      2.64264519	      6.39319690	     -8.34862850	     40.33830430	     44.45942227	     79.38416222	     -3.03975520	      5.98966284
      2.21666667	      1.43714756	     -4.99254559	     87.87381281	      0.19035628	      0.69043631	      0.57768178	      4.62870048	      3.07294443	     -0.12778674	      6.69261337	      0.11680814	     25.02759949	    -10.71618585	      0.00000000	      1.09574210	     -2.87384117	     -4.28587188	      0.60224601	      0.01051118	     30.86856840	      8.51223438	      0.00000000	     -0.03986317	      0.77026582	     -0.81007037	     -0.07402988	      1.02445354	     -0.86069977	     -0.06549119	      1.87282432	     -0.86069977	     -0.04555961	      1.87282432	     -0.70881158	     -0.03701694	      1.57072606	     -0.65818218	     -0.02277781	      1.19314176	     -0.60755278	     -0.28473861	      8.71340103	     -4.50536839	      0.00000000	      0.00000000	     22.61440480	     -6.67273970	      4.56868950	      9.25682149	    -15.22328194	     48.19111852	     41.69386411	     72.67741408	      5.23931937	      1.30780367	      5.81317798	     -8.08671900	     40.73302807	     43.38494241	     77.60504014	     -2.69353048	      5.27194389
      2.23333333	      1.22204848	     -5.31714375	     86.91116029	      0.19119099	      0.68938350	      0.57877806	      5.21679176	      2.89727258	      0.62405149	      6.97964312	      0.12181775	     25.27639622	    -10.52787655	      0.00000000	      1.44927164	     -2.65550731	     -4.77099515	      0.59693043	      0.01041840	     31.20459293	      8.27629597	      0.00000000	     -0.03463231	      0.75835504	     -0.65610340	     -0.06431567	      1.00861221	     -0.69710986	     -0.05689743	      1.84386445	     -0.69710986	     -0.03958127	      1.84386445	     -0.57409048	     -0.03215957	      1.54643761	     -0.53308401	     -0.01978890	      1.17469196	     -0.49207755	     -0.24737515	      8.57866393	     -3.64905029	      0.00000000	      0.00000000	     23.38094226	     -6.78390545	      4.14106814	      7.81032443	    -15.01253640	     44.69623619	     41.45902191	     73.55239825	      4.90587724	     -1.71914121	      4.83001778	     -7.88028867	     40.07873753	     41.94420634	     77.99934771	     -1.67582920	      1.69856013
      2.25000000	      1.12739463	     -5.58205924	     86.36631757	      0.19149621	      0.68852992	      0.58005253	      5.63313699	      2.84538158	      1.31298162	      7.05342123	      0.12310542	     25.22517748	    -10.82685715	      0.00000000	      1.79627812	     -2.57141246	     -5.31285740	      0.62196331	      0.01085531	     31.51003359	      8.54116200	      0.00000000	     -0.03858585	      0.76013699	     -0.57497100	     -0.07165778	      1.01098220	     -0.61090669	     -0.06339269	      1.84819709	     -0.61090669	     -0.04409976	      1.84819709	     -0.50309963	     -0.03583082	      1.55007136	     -0.46716394	     -0.02204795	      1.17745220	     -0.43122825	     -0.27561484	      8.59882171	     -3.19781622	      0.00000000	      0.00000000	     24.06009399	     -6.73463153	      3.67171822	      5.79480923	    -14.60458764	     38.30151338	     41.47412017	     79.38218418	      6.58576263	     -4.28619063	      3.94877918	     -7.65139278	     38.97375893	     39.90732489	     79.87016009	      0.63295331	     -3.37020124
